<svg xmlns="http://www.w3.org/2000/svg" width="49" height="46">
<path  fill="#BBC0D3" d="M47.8,14.7c-2,0-4.1,0-6.1,0c-0.1-0.2-0.2-0.3-0.2-0.4c-1.4-2.8-3-5.4-5.1-7.7c-1.8-2-3.9-3.7-6.4-4.6
	c-1.4-0.5-2.9-0.7-4.4-0.6c-1.5,0.1-2.9,0.3-4.3,0.8c-3,1.1-4.8,3.3-5.4,6.5c0,0.2,0,0.4,0,0.7c4.5,0,8.9,0,13.3,0
	c0,0.9,0,1.8,0,2.7c-0.2,0-0.3,0-0.5,0c-7.8,0-15.7,0-23.5,0c-1,0-1.9,0.1-2.8,0.4c-2,0.7-2.7,2.4-2.4,4.2c0.2,1.7,1.3,2.8,3.1,3.1
	C3.9,19.9,4.8,20,5.6,20c3.3,0,6.6,0,9.9,0c0.1,0,0.3,0,0.5,0c0,0.9,0,1.7,0,2.6c-0.2,0-0.3,0-0.5,0c-2.5,0-5,0-7.4,0
	c-1,0-2,0.1-3,0.5c-1.6,0.6-2.4,1.9-2.4,3.6c0,2.1,1.1,3.4,3.2,3.7c0.7,0.1,1.5,0.2,2.2,0.2c2.5,0,4.9,0,7.4,0c0.1,0,0.3,0,0.5,0
	c0,0.9,0,1.7,0,2.7c-2.6,0-5.3,0-8,0c0,1.4,0.1,2.8,1,4c0.6,0.8,1.5,1.1,2.5,1.2c1.5,0.1,2.9,0.1,4.4,0.1c0.8,0,1.6,0,2.4,0
	c0.1,0,0.3,0,0.4,0c0,0.9,0,1.7,0,2.6c-1.8,0-3.5,0-5.2,0c0,0.1-0.1,0.1-0.1,0.1c0,0.7,0,1.4,0.1,2.1c0.2,1.6,1.2,2.5,2.8,2.9
	c0.9,0.2,1.8,0.3,2.7,0.3c4.2,0,8.3,0,12.5,0c2.7,0,4.8-1,6.5-3c1.2-1.4,2.1-3,2.9-4.7c0-0.1,0.1-0.2,0.2-0.3c2.3,0,4.7,0,7,0
	C47.8,30.7,47.8,22.8,47.8,14.7z"/>
</svg>
